<?xml version="1.0" encoding="iso-8859-1"?>
<!-- Generator: Adobe Illustrator 19.0.0, SVG Export Plug-In . SVG Version: 6.00 Build 0)  -->
<svg xmlns="http://www.w3.org/2000/svg"  version="1.1" id="Layer_1" x="0px" y="0px" viewBox="0 0 511.999 511.999" style="enable-background:new 0 0 511.999 511.999;" xml:space="preserve" width="512px" height="512px">
<g>
	<g>
		<g>
			<path d="M118.033,127.717h117.73c4.645,0,8.411-3.766,8.411-8.411c0-4.645-3.766-8.412-8.411-8.412h-117.73     c-4.645,0-8.411,3.766-8.411,8.412C109.622,123.951,113.388,127.717,118.033,127.717z" fill="#34aca1"/>
			<path d="M302.104,157.821h-184.07c-4.645,0-8.411,3.766-8.411,8.412s3.766,8.411,8.411,8.411h184.07     c4.645,0,8.411-3.766,8.411-8.411S306.749,157.821,302.104,157.821z" fill="#34aca1"/>
			<path d="M118.033,221.569h117.73c4.645,0,8.411-3.766,8.411-8.412c0-4.645-3.766-8.411-8.411-8.411h-117.73     c-4.645,0-8.411,3.766-8.411,8.411C109.622,217.803,113.388,221.569,118.033,221.569z" fill="#34aca1"/>
			<path d="M287.613,366.171H108.608c-4.645,0-8.411,3.766-8.411,8.412v52.641c0,4.645,3.766,8.411,8.411,8.411h179.005     c4.645,0,8.412-3.766,8.412-8.411v-52.641C296.025,369.937,292.26,366.171,287.613,366.171z M279.202,418.813H117.02v-35.819     h162.182V418.813z" fill="#34aca1"/>
			<path d="M118.033,268.495h65.793c4.645,0,8.412-3.766,8.412-8.412c0-4.645-3.766-8.411-8.412-8.411h-65.793     c-4.645,0-8.411,3.766-8.411,8.411C109.622,264.729,113.388,268.495,118.033,268.495z" fill="#34aca1"/>
			<path d="M118.033,315.421h117.73c4.645,0,8.411-3.766,8.411-8.412c0-4.645-3.766-8.411-8.411-8.411h-117.73     c-4.645,0-8.411,3.766-8.411,8.411C109.622,311.655,113.388,315.421,118.033,315.421z" fill="#34aca1"/>
			<path d="M302.104,63.967h-184.07c-4.645,0-8.411,3.766-8.411,8.412c0,4.645,3.766,8.411,8.411,8.411h184.07     c4.645,0,8.411-3.766,8.411-8.411C310.515,67.733,306.749,63.967,302.104,63.967z" fill="#34aca1"/>
			<path d="M358.442,315.421h36.213c4.645,0,8.411-3.766,8.411-8.412c0-4.645-3.766-8.411-8.411-8.411h-36.213     c-4.645,0-8.411,3.766-8.411,8.411C350.03,311.655,353.796,315.421,358.442,315.421z" fill="#34aca1"/>
			<path d="M382.093,391.813v-14.915c2.649,0.688,5.397,1.864,8.145,3.337c1.079,0.59,2.258,0.884,3.435,0.884     c3.728,0,6.672-2.845,6.672-6.574c0-2.943-1.668-4.808-3.533-5.888c-4.219-2.355-8.93-3.924-14.228-4.709v-1.374     c0-2.844-2.258-5.102-5.103-5.102c-2.845,0-5.102,2.258-5.102,5.102v1.179c-12.365,1.276-20.608,8.537-20.608,19.33     c0,11.679,6.967,17.075,21.097,20.902v15.603c-4.514-0.981-8.438-2.845-12.56-5.494c-1.178-0.785-2.551-1.276-3.828-1.276     c-3.827,0-6.771,2.845-6.771,6.672c0,2.65,1.276,4.612,3.337,5.888c5.789,3.532,12.364,5.986,19.332,6.868v5.299     c0,2.844,2.257,5.103,5.102,5.103c2.845,0,5.103-2.259,5.103-5.103v-5.202c12.364-1.374,20.802-8.438,20.802-19.428     C403.386,401.921,397.008,395.836,382.093,391.813z M372.869,389.263c-5.397-1.964-6.771-4.024-6.771-7.066     c0-3.14,2.06-5.496,6.771-6.183V389.263z M382.093,420.075v-13.639c5.299,1.864,6.967,4.022,6.967,7.26     C389.061,417.229,386.705,419.388,382.093,420.075z" fill="#34aca1"/>
			<path d="M358.442,80.79h36.213c4.645,0,8.411-3.766,8.411-8.411c0-4.645-3.766-8.412-8.411-8.412h-36.213     c-4.645,0-8.411,3.766-8.411,8.412C350.03,77.024,353.796,80.79,358.442,80.79z" fill="#34aca1"/>
			<path d="M358.442,268.495h36.213c4.645,0,8.411-3.766,8.411-8.412c0-4.645-3.766-8.411-8.411-8.411h-36.213     c-4.645,0-8.411,3.766-8.411,8.411C350.03,264.729,353.796,268.495,358.442,268.495z" fill="#34aca1"/>
			<path d="M429.771,0H82.224C68.309,0,56.989,11.32,56.989,25.235V491.26c0,11.324,7.087,19.232,17.234,19.232     c3.287,0,6.647-0.865,9.986-2.569l17.684-9.031c2.783-1.421,6.849-2.236,11.157-2.236c4.308,0,8.375,0.815,11.157,2.235     l17.684,9.032c5.147,2.629,11.827,4.076,18.808,4.076c6.98,0,13.66-1.448,18.808-4.077l17.686-9.032     c2.781-1.421,6.847-2.236,11.155-2.236c4.308,0,8.376,0.815,11.158,2.236l17.684,9.032c5.148,2.629,11.827,4.076,18.808,4.076     c6.98,0,13.66-1.448,18.808-4.077l17.686-9.032c2.781-1.421,6.847-2.236,11.155-2.236c4.308,0,8.376,0.815,11.158,2.236     l17.684,9.032c5.147,2.629,11.827,4.076,18.808,4.076c6.982,0,13.66-1.448,18.808-4.077l17.684-9.031     c2.783-1.421,6.849-2.236,11.157-2.236c4.308,0,8.375,0.815,11.157,2.235l17.684,9.032c3.339,1.705,6.698,2.569,9.985,2.569     h0.001c5.081,0,9.627-2.085,12.802-5.87c2.899-3.457,4.431-8.077,4.431-13.362V25.231C455.005,11.32,443.685,0,429.771,0z      M438.182,491.26c0,1.32-0.25,2.092-0.41,2.409c-0.274,0-1.048-0.071-2.335-0.729l-17.683-9.032     c-5.148-2.629-11.827-4.076-18.808-4.076c-6.98,0-13.66,1.448-18.808,4.077l-17.684,9.031c-2.783,1.421-6.849,2.236-11.157,2.236     c-4.308,0-8.375-0.815-11.157-2.235l-17.683-9.032c-5.148-2.629-11.828-4.077-18.809-4.077c-6.982,0-13.66,1.448-18.807,4.077     l-17.684,9.031c-2.783,1.421-6.849,2.236-11.157,2.236c-4.308,0-8.375-0.815-11.157-2.235l-17.684-9.032     c-5.148-2.629-11.828-4.077-18.809-4.077s-13.66,1.448-18.807,4.077l-17.684,9.031c-2.783,1.421-6.849,2.236-11.157,2.236     c-4.308,0-8.375-0.815-11.157-2.235l-17.684-9.032c-5.148-2.629-11.827-4.076-18.808-4.076c-6.98,0-13.66,1.448-18.808,4.077     l-17.684,9.031c-1.289,0.658-2.063,0.729-2.335,0.729H74.22c-0.16-0.317-0.41-1.089-0.41-2.409l0.003-466.027     c0-4.639,3.774-8.412,8.412-8.412h347.547c4.638,0,8.411,3.773,8.411,8.412V491.26z" fill="#34aca1"/>
			<path d="M358.442,221.569h36.213c4.645,0,8.411-3.766,8.411-8.412c0-4.645-3.766-8.411-8.411-8.411h-36.213     c-4.645,0-8.411,3.766-8.411,8.411C350.03,217.803,353.796,221.569,358.442,221.569z" fill="#34aca1"/>
			<path d="M358.442,127.717h36.213c4.645,0,8.411-3.766,8.411-8.411c0-4.645-3.766-8.412-8.411-8.412h-36.213     c-4.645,0-8.411,3.766-8.411,8.412C350.03,123.951,353.796,127.717,358.442,127.717z" fill="#34aca1"/>
			<path d="M358.442,174.644h36.213c4.645,0,8.411-3.766,8.411-8.411s-3.766-8.412-8.411-8.412h-36.213     c-4.645,0-8.411,3.766-8.411,8.412S353.796,174.644,358.442,174.644z" fill="#34aca1"/>
		</g>
	</g>
</g>
<g>
</g>
<g>
</g>
<g>
</g>
<g>
</g>
<g>
</g>
<g>
</g>
<g>
</g>
<g>
</g>
<g>
</g>
<g>
</g>
<g>
</g>
<g>
</g>
<g>
</g>
<g>
</g>
<g>
</g>
</svg>
